<svg width="137" height="146" viewBox="0 0 137 146" fill="none" xmlns="http://www.w3.org/2000/svg">
<path d="M131.76 26.4546C137.806 20.4089 137.806 10.5801 131.76 4.53432C125.714 -1.51144 115.885 -1.51144 109.84 4.53432L109.154 5.22022C108.373 6.00127 108.373 7.2676 109.154 8.04864L128.246 27.1405C129.027 27.9216 130.293 27.9216 131.074 27.1405L131.76 26.4546Z" fill="black"/>
<path d="M123.061 32.3244L103.969 13.2325C103.188 12.4515 101.921 12.4515 101.14 13.2325L94.3026 20.0702C93.5216 20.8513 93.5216 22.1176 94.3026 22.8987L113.395 41.9906C114.176 42.7716 115.442 42.7716 116.223 41.9906L123.061 35.1528C123.842 34.3718 123.842 33.1055 123.061 32.3244Z" fill="black"/>
<path d="M108.612 46.7758L89.5198 27.6839C88.7388 26.9029 87.4724 26.9029 86.6914 27.6839L42.1437 72.2317C41.3626 73.0127 41.3626 74.279 42.1437 75.0601L61.2355 94.152C62.0166 94.933 63.2829 94.933 64.064 94.152L108.612 49.6043C109.393 48.8232 109.393 47.5569 108.612 46.7758Z" fill="black"/>
<path d="M127.55 80.005C131.147 78.7619 133.73 75.3458 133.73 71.3264C133.73 66.2565 129.62 62.1464 124.55 62.1464C119.48 62.1464 115.37 66.2565 115.37 71.3264C115.37 75.3459 117.953 78.762 121.55 80.0051V142.736C121.55 144.393 122.893 145.736 124.55 145.736C126.207 145.736 127.55 144.393 127.55 142.736V80.005Z" fill="black"/>
<path d="M104.33 106.645C107.927 105.402 110.51 101.986 110.51 97.9664C110.51 92.8965 106.4 88.7864 101.33 88.7864C96.2601 88.7864 92.15 92.8965 92.15 97.9664C92.15 100.422 93.1141 102.652 94.6844 104.3C88.8793 112.203 83.4453 116.921 78.7713 119.391C77.1791 116.667 74.2233 114.836 70.84 114.836C66.0077 114.836 62.0474 118.57 61.6868 123.31C55.3876 125.248 49.6948 128.514 44.4938 131.517L44.4625 131.535C36.4193 136.179 29.7394 140.035 22.794 139.957C20.8519 139.934 18.4868 139.706 15.635 138.531C12.7641 137.349 9.2491 135.144 5.13701 130.971C3.97417 129.791 2.07473 129.776 0.89449 130.939C-0.285751 132.102 -0.299854 134.002 0.862992 135.182C5.4409 139.828 9.61095 142.539 13.35 144.079C17.1081 145.627 20.2779 145.928 22.7258 145.956C31.3411 146.054 39.2977 141.453 46.6735 137.187L47.4937 136.713C52.7506 133.678 57.8571 130.803 63.2062 129.117C64.3094 130.765 65.9321 132.036 67.84 132.695V142.736C67.84 144.393 69.1831 145.736 70.84 145.736C72.4968 145.736 73.84 144.393 73.84 142.736V132.695C76.9764 131.611 79.3421 128.875 79.8964 125.527C85.7849 122.869 92.0439 117.616 98.33 109.432V142.736C98.33 144.393 99.6731 145.736 101.33 145.736C102.987 145.736 104.33 144.393 104.33 142.736V106.645Z" fill="black"/>
<path d="M34.6882 81.2469C35.2443 79.9447 36.9404 79.6169 37.9417 80.6182L55.7261 98.4026C56.7144 99.3909 56.4101 101.062 55.1369 101.639L23.6734 115.886C22.0119 116.638 20.2928 114.956 21.0091 113.278L34.6882 81.2469Z" fill="black"/>
</svg>
